<svg width="32" height="32" enable-background="new" version="1.1" viewBox="0 0 32 32" xmlns="http://www.w3.org/2000/svg" xmlns:cc="http://creativecommons.org/ns#" xmlns:dc="http://purl.org/dc/elements/1.1/" xmlns:rdf="http://www.w3.org/1999/02/22-rdf-syntax-ns#">
 <metadata>
  <rdf:RDF>
   <cc:Work rdf:about="">
    <dc:format>image/svg+xml</dc:format>
    <dc:type rdf:resource="http://purl.org/dc/dcmitype/StillImage"/>
    <dc:title/>
   </cc:Work>
  </rdf:RDF>
 </metadata>
 <path d="m0-0.0092088h32.009v32.009h-32.009z" fill="#103050"/>
 <path d="m12.515 9.7626c-1.0024 0-2.0168 0.1286-3.0405 0.3859-1.0241 0.258-1.9699 0.6131-2.8376 1.0665l0.8625 2.0854c0.711-0.3297 1.4711-0.6278 2.2815-0.8952 0.80963-0.2681 1.6695-0.402 2.5785-0.402 1.2431 0 2.1476 0.3057 2.712 0.9184 0.56438 0.6139 0.84562 1.5638 0.84562 2.8515v1.0043l-2.9152 0.1083c-5.5073 0.1643-8.2613 1.9665-8.2613 5.4064 0 1.5971 0.48112 2.8339 1.4422 3.7091 0.96225 0.8753 2.289 1.3129 3.9829 1.3129 1.2945 0 2.3685-0.189 3.2201-0.5636 0.852-0.3765 1.7059-1.0939 2.5631-2.1555h0.12562l0.54862 2.4105h2.0542v-11.558c0-1.977-0.50738-3.4193-1.521-4.3264-1.0144-0.9064-2.5609-1.359-4.6414-1.359zm3.3709 10.475c0 1.545-0.45262 2.7378-1.356 3.5763-0.90375 0.84-2.1454 1.2597-3.7234 1.2597-0.993 0-1.764-0.2382-2.3119-0.7114-0.54788-0.4733-0.82312-1.1531-0.82312-2.0389 0-1.1749 0.45188-2.034 1.356-2.5811 0.90412-0.5456 2.3445-0.8539 4.3189-0.927l2.5395-0.1073z" fill="#fff"/>
 <path d="m24.006 10.041h2.8211v16.965h-2.8211z" fill="#fff"/>
 <path d="m24.006 4.9923h2.8211v2.8208h-2.8211z" fill="#ba9a5a"/>
</svg>
